<svg version="1.1" xmlns="http://www.w3.org/2000/svg" xmlns:xlink="http://www.w3.org/1999/xlink" width="175.5" height="72.00839" viewBox="0,0,175.5,72.00839"><g transform="translate(-173.75,-44.14473)"><g data-paper-data="{&quot;isPaintingLayer&quot;:true}" fill-rule="nonzero" stroke-linejoin="miter" stroke-miterlimit="10" stroke-dasharray="" stroke-dashoffset="0" style="mix-blend-mode: normal"><path d="M348.5,76.94737c0,17.70218 -38.95123,32.05263 -87,32.05263c-48.04878,0 -87,-14.35045 -87,-32.05263c0,-17.70218 38.95122,-32.05264 87,-32.05264c48.04877,0 87,14.35046 87,32.05264z" fill="#ffffff" stroke="#000000" stroke-width="1.5" stroke-linecap="butt"/><text transform="translate(217.75,63.89333) scale(0.36691,0.36691)" font-size="40" xml:space="preserve" fill="#000000" fill-rule="nonzero" stroke="#000000" stroke-width="1" stroke-linecap="butt" stroke-linejoin="miter" stroke-miterlimit="10" stroke-dasharray="" stroke-dashoffset="0" font-family="Sans Serif" font-weight="normal" text-anchor="start" style="mix-blend-mode: normal"><tspan x="0" dy="0">   Welcome </tspan><tspan x="0" dy="46.15px">      to  the </tspan><tspan x="0" dy="46.15px">Cozzzy Cafe!</tspan></text><path d="M312.0825,102.65313l15.125,13.5" fill="none" stroke="none" stroke-width="0" stroke-linecap="round"/><path d="M334.3325,94.52813l-1,20.25l-19.625,-11.875l10.08522,-3.38636z" fill="#ffffff" stroke="#000000" stroke-width="1.5" stroke-linecap="round"/><path d="M317.99222,103.37535l-6.72222,-3.27777" fill="none" stroke="#ffffff" stroke-width="1.5" stroke-linecap="round"/><path d="M333.43666,90.54202l-1.61111,11.94444" fill="none" stroke="#ffffff" stroke-width="1.5" stroke-linecap="round"/><path d="M318.99222,103.98646l-6.72222,-3.38889" fill="none" stroke="#ffffff" stroke-width="1.5" stroke-linecap="round"/><path d="M325.85554,95.74956c2.31562,-0.80685 2.29287,-4.89415 5.36755,-3.13719c2.65494,1.51711 0.5885,4.97611 -0.77314,6.47392c-0.91614,1.00775 -9.99347,3.52219 -12.67737,3.99096c-0.19636,0.04956 -0.40195,0.07588 -0.6137,0.07588c-1.38071,0 -2.5,-1.11929 -2.5,-2.5c0,-1.1784 0.81531,-2.16638 1.91261,-2.43061c2.53117,-1.53885 6.81148,-1.61142 9.28405,-2.47296z" fill="#ffffff" stroke="none" stroke-width="0.5" stroke-linecap="butt"/></g></g></svg>